<?xml version="1.0" encoding="UTF-8"?><svg id="Layer_1" xmlns="http://www.w3.org/2000/svg" xmlns:xlink="http://www.w3.org/1999/xlink" viewBox="0 0 400 200.47"><defs><style>.cls-1{fill:none;}.cls-2{fill:url(#linear-gradient);}.cls-3{fill:#fff;}.cls-4{fill:url(#_무제_그라디언트_40);}.cls-5{fill:url(#_무제_그라디언트_41);}</style><linearGradient id="_무제_그라디언트_41" x1="343.06" y1="100.24" x2="29.29" y2="100.24" gradientUnits="userSpaceOnUse"><stop offset=".11" stop-color="#fff"/><stop offset=".12" stop-color="#fff" stop-opacity=".93"/><stop offset=".17" stop-color="#fff" stop-opacity=".75"/><stop offset=".23" stop-color="#fff" stop-opacity=".58"/><stop offset=".28" stop-color="#fff" stop-opacity=".44"/><stop offset=".35" stop-color="#fff" stop-opacity=".32"/><stop offset=".41" stop-color="#fff" stop-opacity=".22"/><stop offset=".49" stop-color="#fff" stop-opacity=".14"/><stop offset=".57" stop-color="#fff" stop-opacity=".09"/><stop offset=".68" stop-color="#fff" stop-opacity=".06"/><stop offset=".89" stop-color="#fff" stop-opacity=".05"/></linearGradient><linearGradient id="linear-gradient" x1="7349.04" y1="2892.31" x2="7299.11" y2="2892.31" gradientTransform="translate(-7303.91 -2871.19)" gradientUnits="userSpaceOnUse"><stop offset=".11" stop-color="#fff"/><stop offset=".19" stop-color="#fff" stop-opacity=".98"/><stop offset=".29" stop-color="#fff" stop-opacity=".92"/><stop offset=".4" stop-color="#fff" stop-opacity=".82"/><stop offset=".51" stop-color="#fff" stop-opacity=".69"/><stop offset=".63" stop-color="#fff" stop-opacity=".52"/><stop offset=".76" stop-color="#fff" stop-opacity=".3"/><stop offset=".88" stop-color="#fff" stop-opacity=".06"/><stop offset=".89" stop-color="#fff" stop-opacity=".05"/></linearGradient><linearGradient id="_무제_그라디언트_40" x1="123.85" y1="100.24" x2="392.04" y2="100.24" gradientUnits="userSpaceOnUse"><stop offset=".04" stop-color="#fff"/><stop offset=".35" stop-color="#fff"/><stop offset=".89" stop-color="#fff" stop-opacity=".05"/></linearGradient></defs><rect class="cls-5" x="59.48" y="79.33" width="252.99" height="41.81"/><rect class="cls-2" y=".22" width="40.26" height="41.81" transform="translate(40.26 42.25) rotate(180)"/><path class="cls-4" d="M217.46,121.14V59.57C217.46,26.72,190.74,0,157.89,0H60.56V41.81h97.33c8.74,0,15.86,7.11,15.86,15.86v21.66H59.47v61.57c0,32.85,26.72,59.57,59.57,59.57h227.64v-41.81H119.04c-8.74,0-15.86-7.11-15.86-15.86v-21.66h114.28Z"/><g><path class="cls-1" d="M281.41,142.8c0,8.74,7.11,15.86,15.86,15.86h59.02v-36.56h-74.88v20.71Z"/><path class="cls-3" d="M400,59.39v-5.21C400,24.31,375.69,0,345.82,0h-108.12V140.9c0,32.85,26.72,59.57,59.57,59.57h102.73V79.33h-87.53v41.81h43.82v37.51h-59.02c-8.74,0-15.86-7.11-15.86-15.86V43.71h64.41c5.77,0,10.47,4.7,10.47,10.47v5.21h43.71Z"/></g></svg>