<?xml version="1.0" encoding="UTF-8"?><svg id="Layer_1" xmlns="http://www.w3.org/2000/svg" viewBox="0 0 28 28"><circle cx="19.65" cy="8.31" r=".96"/><path d="M13.9,18.72c-2.6,0-4.72-2.12-4.72-4.72s2.12-4.72,4.72-4.72,4.72,2.12,4.72,4.72-2.12,4.72-4.72,4.72Zm0-7.43c-1.5,0-2.72,1.22-2.72,2.72s1.22,2.72,2.72,2.72,2.72-1.22,2.72-2.72-1.22-2.72-2.72-2.72Z"/><path d="M20.66,25H7.15c-2.34,0-4.25-1.91-4.25-4.25V7.25c0-2.34,1.91-4.25,4.25-4.25h13.5c2.34,0,4.25,1.91,4.25,4.25v13.5c0,2.34-1.91,4.25-4.25,4.25ZM7.15,5c-1.24,0-2.25,1.01-2.25,2.25v13.5c0,1.24,1.01,2.25,2.25,2.25h13.5c1.24,0,2.25-1.01,2.25-2.25V7.25c0-1.24-1.01-2.25-2.25-2.25H7.15Z"/></svg>