<?xml version="1.0" encoding="UTF-8"?><svg id="Layer_1" xmlns="http://www.w3.org/2000/svg" viewBox="0 0 40 40"><defs><style>.cls-1{fill:#38d430;}</style></defs><path class="cls-1" d="M37.81,18.73L24.39,5.32c-.34-.35-.81-.55-1.3-.55s-.91,.18-1.25,.5c-.35,.33-.54,.78-.55,1.26s.17,.94,.51,1.29l10.4,10.37H3.48c-.99,0-1.8,.81-1.8,1.8s.81,1.8,1.8,1.8h28.67l-10.3,10.33c-.71,.69-.74,1.83-.05,2.54,.34,.36,.8,.55,1.3,.55,.47,0,.91-.18,1.26-.51l13.42-13.43c.35-.33,.54-.78,.55-1.26,0-.48-.17-.93-.51-1.29Z"/></svg>