<?xml version="1.0" encoding="UTF-8"?><svg id="Layer_1" xmlns="http://www.w3.org/2000/svg" viewBox="0 0 28 28"><defs><style>.cls-1{fill:none;}</style></defs><path class="cls-1" d="M13.61,14.37c-.6,0-1.19-.19-1.7-.56L3.59,7.62c-.03,.11-.05,.23-.05,.36v11.62c0,.76,.62,1.38,1.38,1.38H23.08c.76,0,1.38-.62,1.38-1.38V7.98c0-.15-.03-.29-.07-.43l-9.17,6.31c-.49,.33-1.05,.5-1.61,.5Z"/><path class="cls-1" d="M14.09,12.22l8.16-5.62H5.56l7.55,5.6c.29,.21,.69,.22,.98,.02Z"/><path d="M26.05,6.4c-.33-.61-.83-1.11-1.45-1.42-.46-.23-.97-.38-1.52-.38H4.92c-.56,0-1.07,.15-1.53,.39-.62,.32-1.12,.81-1.44,1.42-.25,.47-.41,1-.41,1.58v11.62c0,1.87,1.52,3.38,3.38,3.38H23.08c1.87,0,3.38-1.52,3.38-3.38V7.98c0-.57-.16-1.11-.41-1.58Zm-3.8,.2l-8.16,5.62c-.3,.2-.69,.2-.98-.02L5.56,6.59H22.25Zm2.22,13c0,.76-.62,1.38-1.38,1.38H4.92c-.76,0-1.38-.62-1.38-1.38V7.98c0-.12,.02-.24,.05-.36l8.32,6.18c.5,.37,1.1,.56,1.7,.56,.56,0,1.13-.17,1.61-.5l9.17-6.31c.04,.14,.07,.28,.07,.43v11.62Z"/></svg>