<?xml version="1.0" encoding="UTF-8"?><svg id="Layer_1" xmlns="http://www.w3.org/2000/svg" viewBox="0 0 451.85 139.64"><defs><style>.cls-1{fill:#6C6C6C;}</style></defs><path class="cls-1" d="M256.26,138.98h36.13V42.79C292.39-1.99,257.92,.33,254.27,0h-97.13s8.95,3.31,8.95,15.59v123.39h35.81V22.88h42.44c3.98,0,11.93,2.99,11.93,14.26v101.83h0Zm195.59,0V.33h-36.13V116.09h-42.11c-4.31,0-11.93-2.65-11.93-14.26V.33h-45.09s9.62,1.99,9.62,15.59V96.19c0,45.44,37.79,42.79,37.79,42.79h87.85ZM46.41,57.38l62,82.26h42.1L85.53,57.38,147.86,0h-36.8L47.08,57.05l-.66,.33ZM45.42,.33H0s8.95,1.99,8.95,15.92v122.4H45.42V.33h0Z"/></svg>