<svg width="24" height="24" viewBox="0 0 24 24" fill="none" xmlns="http://www.w3.org/2000/svg">
<path fill-rule="evenodd" clip-rule="evenodd" d="M4.5 7.5C4.5 6.94772 4.94772 6.5 5.5 6.5H18.5C19.0523 6.5 19.5 6.94772 19.5 7.5C19.5 8.05228 19.0523 8.5 18.5 8.5H5.5C4.94772 8.5 4.5 8.05228 4.5 7.5ZM4.5 12C4.5 11.4477 4.94772 11 5.5 11H18.5C19.0523 11 19.5 11.4477 19.5 12C19.5 12.5523 19.0523 13 18.5 13H5.5C4.94772 13 4.5 12.5523 4.5 12ZM5.5 15.5C4.94772 15.5 4.5 15.9477 4.5 16.5C4.5 17.0523 4.94772 17.5 5.5 17.5H18.5C19.0523 17.5 19.5 17.0523 19.5 16.5C19.5 15.9477 19.0523 15.5 18.5 15.5H5.5Z" fill="#38d430"/>
</svg>
